<svg xmlns="http://www.w3.org/2000/svg" viewBox="0 0 176 140.5">
  <defs>
    <style>
      .cls-1 {
        fill: none;
        stroke: #000;
        stroke-miterlimit: 10;
        stroke-width: 2px;
      }
    </style>
  </defs>
  <title>covalent</title>
  <g id="animated_logo" data-name="animated logo">
    <g id="logo">
      <path d="M70.4,30.6A54.1,54.1,0,0,0,66.5,43a45.3,45.3,0,0,1,11.7,5.7,44.8,44.8,0,0,1,3-13.6,50.8,50.8,0,0,0-10.8-4.6,60.2,60.2,0,0,1,8.8-14.1H47.8V28.8A54.2,54.2,0,0,1,70.4,30.6Z"/>
      <path d="M86,55.1a46.5,46.5,0,0,0-7.8-6.4c-.6,12.2,4,24.8,14.2,35a55.9,55.9,0,0,0,7.7,6.3A43.9,43.9,0,0,1,97,103.8a50,50,0,0,0,10.8,4.4,51.3,51.3,0,0,0,4-12.4A44,44,0,0,1,100.1,90h0C100.7,77.9,96.2,65.3,86,55.1Z"/>
      <path d="M66.5,43a42.6,42.6,0,0,0-18.7-1.8v75.2H89.1A45.2,45.2,0,0,0,97,103.8,60.6,60.6,0,0,1,82.9,93.2C68.6,78.9,63.3,60.4,66.5,43Z"/>
      <path d="M95.2,16.4a41.4,41.4,0,0,0-3.8,3.5A44.3,44.3,0,0,0,81.2,35.1,61.1,61.1,0,0,1,95.4,45.7c14.3,14.4,19.6,32.7,16.4,50.1a42.8,42.8,0,0,0,36-4.6V16.4Z"/>
      <path d="M107.8,108.3a53.1,53.1,0,0,1-4.4,8.1h44.4V104.5A55.1,55.1,0,0,1,107.8,108.3Z"/>
    </g>
    <g id="shapes">
      <rect class="cls-1" x="48.7" y="17.3" width="98.3" height="98.3"/>
      <circle class="cls-1" cx="97.7" cy="66.4" r="49.2"/>
      <circle class="cls-1" cx="97.7" cy="66.4" r="49.2"/>
    </g>
  </g>
</svg>
