<svg xmlns="http://www.w3.org/2000/svg" viewBox="0 0 176.04 140.52">
    <g id="logo">
        <path d="M70.37,30.55A56.46,56.46,0,0,0,66.54,43a46.2,46.2,0,0,1,11.71,5.69,42.19,42.19,0,0,1,3-13.61,56,56,0,0,0-10.86-4.52,60.35,60.35,0,0,1,8.77-14.11H47.82V28.8A54,54,0,0,1,70.37,30.55Z"/>
        <path d="M86,55.1a51.22,51.22,0,0,0-7.76-6.42c-.65,12.2,4,24.8,14.18,35A50.91,50.91,0,0,0,100.07,90,42.86,42.86,0,0,1,97,103.76a55.93,55.93,0,0,0,10.87,4.49,55.64,55.64,0,0,0,3.92-12.49A46.5,46.5,0,0,1,100.07,90h0C100.74,77.9,96.22,65.31,86,55.1Z"/>
        <path d="M66.54,43a43.37,43.37,0,0,0-18.72-1.77v75.21H89.09A44.37,44.37,0,0,0,97,103.77,61.12,61.12,0,0,1,82.92,93.2C68.58,78.87,63.3,60.43,66.54,43Z"/>
        <path d="M95.2,16.43a46,46,0,0,0-3.85,3.44,45.47,45.47,0,0,0-10.12,15.2A61.53,61.53,0,0,1,95.38,45.72c14.36,14.35,19.66,32.7,16.39,50.05a42.54,42.54,0,0,0,36.05-4.57V16.43Z"/>
        <path d="M107.85,108.26a58.79,58.79,0,0,1-4.48,8.17h44.45v-12A54.52,54.52,0,0,1,107.85,108.26Z"/>
    </g>
    <g id="shapes">
        <path d="M145.82,18.43v96h-96v-96h96m2-2h-100v100h100v-100Z"/>
        <path d="M97.73,18.43a48,48,0,1,1-48,48,48.05,48.05,0,0,1,48-48m0-2a50,50,0,1,0,50,50,50,50,0,0,0-50-50Z"/>
        <path d="M97.73,18.43a48,48,0,1,1-48,48,48.05,48.05,0,0,1,48-48m0-2a50,50,0,1,0,50,50,50,50,0,0,0-50-50Z"/>
    </g>
</svg>
