<?xml version="1.0" encoding="utf-8"?>
<!-- Generator: Adobe Illustrator 23.0.6, SVG Export Plug-In . SVG Version: 6.00 Build 0)  -->
<svg version="1.1" id="Layer_1" xmlns="http://www.w3.org/2000/svg" xmlns:xlink="http://www.w3.org/1999/xlink" x="0px" y="0px"
	 viewBox="0 0 300 100" style="enable-background:new 0 0 300 100;" xml:space="preserve">
<style type="text/css">
	.st0{fill-rule:evenodd;clip-rule:evenodd;fill:#616365;}
	.st1{fill:#C1BB00;}
	.st2{fill:#616365;}
</style>
<g id="logic">
	<path class="st0" d="M233.8,48.5c-6.5,0-11.4,9.2-11.4,16.9c0,3.2,1.5,8.4,6.3,8.4c7.1,0,11.8-9.5,11.8-16.9
		C240.6,51.9,238.3,48.5,233.8,48.5z M229,72.4c-3.1,0-3-3.8-3-5.9c0-5.2,4.4-16.5,8-16.5c2.3,0,2.9,1.8,2.9,5.9
		C236.9,61.5,231.9,72.4,229,72.4z"/>
	<path class="st0" d="M296,48.8c-8.4,0-13.7,13.7-13.7,19.2c0,1.4,0.3,5.8,5.4,5.8c4.4,0,8-6.2,8-6.4c0-0.3-0.2-0.6-0.5-0.6
		c-0.9,0-2.8,4.1-5.7,4.1c-2.2,0-2.8-2.2-2.8-4c0-3.9,3-16.3,6.7-16.3c2.2,0,0.7,3.5,4,3.5c1.5,0,2.6-0.9,2.6-2.4
		C300,49.6,297.7,48.8,296,48.8z"/>
	<path class="st0" d="M265,48.7c-2.6,0-5.2,2.4-5.6,2.4c-0.7,0-1.8-2.4-6.1-2.4c-6,0-9.5,8.2-9.5,13.3c0,4.4,3.3,5.5,3.3,6
		c0,0.6-2.7,1.9-2.7,4.3c0,2.1,2.3,2.9,2.4,3.1c-7.2,3.1-8.4,5.4-8.6,7.5c-0.1,1,0.1,6.1,11.5,6.1c9.6,0,13.1-4.9,13.1-8.9
		c0-4-3.7-5.2-5.5-5.8c-7.6-2.5-9.8-2.3-9.8-4.2c0-0.8,0.6-1.6,1-1.9c0.4,0.2,1.2,0.2,2.2,0.2c8.9,0,10.5-8.1,10.5-11.6
		c0-2.8-0.8-4.4-0.8-4.6c0-0.2,1.1-1.2,2.1-1.2c1.8,0,1.3,2.1,3.1,2.1c1.1,0,1.9-0.9,1.9-2C267.4,49.7,266.4,48.7,265,48.7z
		 M248.5,76.2c0.6,0,3.5,0.9,4.5,1.2c2.4,0.8,5.8,1.6,5.8,4.7c0,1.9-1.2,5.7-9,5.7c-3.1,0-8.3-1.6-8.3-5.4
		C241.5,78.5,247.9,76.2,248.5,76.2z M250.6,67.2c-1.2,0-3-0.4-3-4.2c0-3.7,2.2-12.8,6.9-12.8c2.9,0,3,3.7,3,4.8
		C257.5,59.9,254.7,67.2,250.6,67.2z"/>
	<path class="st0" d="M277.3,48.3c-4.2,0-9,6-9,6.6c0,0.3,0.2,0.6,0.4,0.6c0.1,0,0.2-0.1,0.4-0.3c1.3-1.2,3.4-3.7,4.8-3.7
		c0.4,0,0.4,0.7,0.4,0.8c0,0.3-7.3,17.6-7.3,19.2c0,0.8,0,2.2,1.6,2.2c3.9,0.3,9.8-6.8,9.8-7c0-0.6-0.3-0.6-0.6-0.6
		c-0.3,0-4.1,4-5.4,4c-0.3,0-0.4-0.3-0.4-0.7c0-0.9,7-17.3,7-19.6C279,48.5,277.7,48.3,277.3,48.3z"/>
	<path class="st0" d="M221,34.4c-0.4,0-2.8,0.4-6.2,0.8c-1.1,0.1-1.7,0.3-1.7,0.9c0,0.8,0.8,0.8,1.7,0.8c1.1,0,1.9,0.1,1.9,1.5
		c0,0.6-10.8,31.9-10.8,33.4c0,1.1,0.7,1.9,1.9,1.9c3.6,0,11-9.1,11-9.6c0-0.5-0.2-0.7-0.5-0.7c-0.7,0-4.7,5.2-5.9,5.2
		c-0.6,0-0.9-0.3-0.9-0.9c0-1.2,10.4-30.6,10.4-32.8C221.9,34.4,221.4,34.4,221,34.4z"/>
</g>
<g id="covalent">
	<path id="green" class="st1" d="M120.6,1l-16.2,39.3h9.3l9.9-25.7h0.1l9.7,25.7h9.9L127.5,1H120.6z M104.4,1l-9.9,25.7h-0.1L84.8,1
		h-9.9l15.7,39.3h6.9L113.7,1H104.4z"/>
	<path class="st0" d="M56.3,0C44,0,35.1,8,35.1,20.6c0,12.6,8.9,20.6,21.2,20.6s21.2-8,21.2-20.6C77.4,8,68.5,0,56.3,0z M56.3,33.3
		c-7.4,0-12.2-5.3-12.2-12.6C44.1,13.3,48.9,8,56.3,8c7.4,0,12.2,5.3,12.2,12.6C68.5,27.9,63.6,33.3,56.3,33.3z"/>
	<polygon class="st0" points="153.5,1 144.8,1 144.8,40.3 169.5,40.3 169.5,32.3 153.5,32.3 	"/>
	<polygon class="st0" points="252.8,40.3 261.4,40.3 261.4,8.7 272.6,8.7 272.6,1 241.6,1 241.6,8.7 252.8,8.7 	"/>
	<path class="st0" d="M20.1,33.3C13.8,33.3,9,27.9,9,20.6C9,13.3,13.8,8,20.3,8c3.2,0,5.7,1.2,7.4,3.2l6.7-5.4
		C31.1,1.5,25.6,0,21.2,0C8.9,0,0,8,0,20.6c0,12.6,8.9,20.6,21.2,20.6c5.4,0,10.9-2.2,14.2-6.8l-7.2-5.4
		C26.4,31.7,23.6,33.3,20.1,33.3z"/>
	<polygon class="st0" points="180.7,24.2 197.8,24.2 197.8,16.2 180.7,16.2 180.7,9 198.8,9 198.8,1 172.1,1 172.1,40.3 199.8,40.3 
		199.8,32.3 180.7,32.3 	"/>
	<polygon class="st0" points="211,12.3 211.1,12.3 228.3,40.3 239.6,40.3 239.6,1 230.9,1 230.9,28.3 230.8,28.3 214.1,1 202.4,1 
		202.4,40.3 211,40.3 	"/>
</g>
<g id="created">
	<path class="st2" d="M26.4,47.5c-0.8-1-1.8-1.7-2.9-2.2c-1.2-0.5-2.5-0.8-4-0.8c-1.5,0-2.9,0.3-4.2,0.9c-1.3,0.6-2.4,1.4-3.4,2.5
		c-1,1.1-1.7,2.3-2.2,3.8c-0.5,1.5-0.8,3-0.8,4.7C8.8,58,9,59.6,9.6,61c0.5,1.4,1.3,2.7,2.2,3.7c0.9,1.1,2,1.9,3.3,2.5
		c1.3,0.6,2.6,0.9,4.1,0.9c1.7,0,3.1-0.3,4.4-1c1.3-0.7,2.3-1.7,3.2-2.9l6.7,5c-1.6,2.2-3.5,3.8-5.9,4.8c-2.4,1-4.8,1.6-7.4,1.6
		c-2.9,0-5.5-0.4-7.9-1.3c-2.4-0.9-4.5-2.2-6.3-3.9c-1.8-1.7-3.1-3.7-4.1-6.1c-1-2.4-1.5-5-1.5-8c0-2.9,0.5-5.6,1.5-8
		c1-2.4,2.4-4.4,4.1-6.1c1.8-1.7,3.9-3,6.3-3.9c2.4-0.9,5.1-1.3,7.9-1.3c1,0,2.1,0.1,3.2,0.3c1.1,0.2,2.2,0.5,3.3,0.9
		c1.1,0.4,2.1,1,3.1,1.7c1,0.7,1.9,1.5,2.7,2.5L26.4,47.5z"/>
	<path class="st2" d="M36.9,49.5h7.8v4h0.1c0.8-1.6,1.8-2.7,3-3.5c1.1-0.8,2.6-1.2,4.3-1.2c0.4,0,0.9,0,1.3,0.1
		c0.4,0,0.9,0.1,1.2,0.2v7.1c-0.6-0.2-1.1-0.3-1.6-0.4c-0.5-0.1-1.1-0.1-1.7-0.1c-1.5,0-2.7,0.2-3.5,0.6c-0.9,0.4-1.5,1-2,1.7
		c-0.5,0.7-0.8,1.6-0.9,2.7c-0.1,1-0.2,2.2-0.2,3.4v10.5h-7.8V49.5z"/>
	<path class="st2" d="M80.9,70.3c-1.2,1.6-2.8,2.8-4.7,3.7c-1.9,0.9-3.9,1.3-5.9,1.3c-1.9,0-3.8-0.3-5.5-0.9
		c-1.7-0.6-3.2-1.5-4.5-2.7c-1.3-1.2-2.3-2.5-3-4.2c-0.7-1.6-1.1-3.4-1.1-5.4c0-2,0.4-3.8,1.1-5.4c0.7-1.6,1.7-3,3-4.2
		c1.3-1.2,2.7-2,4.5-2.7c1.7-0.6,3.5-0.9,5.5-0.9c1.8,0,3.4,0.3,4.9,0.9c1.5,0.6,2.7,1.5,3.7,2.7c1,1.2,1.8,2.5,2.4,4.2
		c0.6,1.6,0.8,3.4,0.8,5.4v2.4H64c0.3,1.5,1,2.7,2,3.6s2.3,1.3,3.8,1.3c1.3,0,2.4-0.3,3.2-0.9c0.9-0.6,1.6-1.3,2.3-2.2L80.9,70.3z
		 M74.3,59.2c0-1.3-0.4-2.4-1.3-3.4c-0.9-0.9-2.1-1.4-3.5-1.4c-0.9,0-1.6,0.1-2.3,0.4c-0.7,0.3-1.2,0.6-1.7,1.1
		c-0.5,0.4-0.8,0.9-1.1,1.5c-0.3,0.6-0.4,1.2-0.4,1.8H74.3z"/>
	<path class="st2" d="M102.6,71.5h-0.1c-0.9,1.3-2,2.3-3.4,2.9c-1.4,0.6-2.9,0.9-4.5,0.9c-1.2,0-2.3-0.2-3.4-0.5
		c-1.1-0.3-2-0.8-2.9-1.5c-0.8-0.7-1.5-1.5-2-2.4c-0.5-1-0.7-2.1-0.7-3.4c0-1.5,0.3-2.7,0.8-3.7c0.5-1,1.3-1.8,2.2-2.5
		c0.9-0.7,2-1.2,3.1-1.5c1.2-0.4,2.4-0.6,3.7-0.8c1.3-0.2,2.5-0.3,3.8-0.3c1.3,0,2.4-0.1,3.5-0.1c0-1.4-0.5-2.5-1.5-3.3
		c-1-0.8-2.2-1.2-3.5-1.2c-1.3,0-2.4,0.3-3.5,0.8c-1.1,0.5-2,1.3-2.8,2.2l-4.1-4.3c1.5-1.3,3.1-2.4,5.1-3c1.9-0.7,3.9-1,6-1
		c2.3,0,4.2,0.3,5.6,0.9c1.5,0.6,2.6,1.4,3.5,2.5c0.9,1.1,1.5,2.5,1.8,4.1c0.3,1.6,0.5,3.5,0.5,5.6v12.8h-7.2V71.5z M100.7,63.6
		c-0.6,0-1.3,0-2.2,0.1c-0.9,0.1-1.7,0.2-2.5,0.4c-0.8,0.2-1.5,0.6-2.1,1.1c-0.6,0.5-0.9,1.2-0.9,2c0,0.9,0.4,1.6,1.2,2.1
		c0.8,0.4,1.6,0.7,2.5,0.7c0.8,0,1.5-0.1,2.2-0.3c0.7-0.2,1.3-0.5,1.9-0.9c0.6-0.4,1-0.9,1.3-1.5c0.3-0.6,0.5-1.3,0.5-2.1v-1.7
		H100.7z"/>
	<path class="st2" d="M131.8,55.7H125v8.4c0,0.7,0,1.3,0.1,1.9c0.1,0.6,0.2,1.1,0.5,1.5c0.2,0.4,0.6,0.7,1.1,1
		c0.5,0.2,1.2,0.3,2,0.3c0.4,0,1,0,1.6-0.1c0.7-0.1,1.2-0.3,1.5-0.6v6.5c-0.9,0.3-1.8,0.5-2.7,0.6c-0.9,0.1-1.8,0.2-2.7,0.2
		c-1.3,0-2.5-0.1-3.6-0.4c-1.1-0.3-2.1-0.7-2.9-1.3c-0.8-0.6-1.5-1.4-1.9-2.4c-0.5-1-0.7-2.1-0.7-3.5v-12h-5v-6.2h5V42h7.8v7.5h6.8
		V55.7z"/>
	<path class="st2" d="M159.6,70.3c-1.2,1.6-2.8,2.8-4.7,3.7c-1.9,0.9-3.9,1.3-5.9,1.3c-1.9,0-3.8-0.3-5.5-0.9
		c-1.7-0.6-3.2-1.5-4.5-2.7c-1.3-1.2-2.3-2.5-3-4.2c-0.7-1.6-1.1-3.4-1.1-5.4c0-2,0.4-3.8,1.1-5.4c0.7-1.6,1.7-3,3-4.2
		c1.3-1.2,2.7-2,4.5-2.7c1.7-0.6,3.5-0.9,5.5-0.9c1.8,0,3.4,0.3,4.9,0.9c1.5,0.6,2.7,1.5,3.7,2.7c1,1.2,1.8,2.5,2.4,4.2
		c0.6,1.6,0.8,3.4,0.8,5.4v2.4h-18c0.3,1.5,1,2.7,2,3.6s2.3,1.3,3.8,1.3c1.3,0,2.4-0.3,3.2-0.9c0.9-0.6,1.6-1.3,2.3-2.2L159.6,70.3z
		 M153,59.2c0-1.3-0.4-2.4-1.3-3.4c-0.9-0.9-2.1-1.4-3.5-1.4c-0.9,0-1.6,0.1-2.3,0.4c-0.7,0.3-1.2,0.6-1.7,1.1
		c-0.5,0.4-0.8,0.9-1.1,1.5c-0.3,0.6-0.4,1.2-0.4,1.8H153z"/>
	<path class="st2" d="M191.9,74.7h-7.2v-3.3h-0.1c-0.3,0.4-0.7,0.9-1.2,1.4c-0.5,0.5-1.1,0.9-1.8,1.3c-0.7,0.4-1.4,0.7-2.2,0.9
		c-0.8,0.2-1.7,0.4-2.5,0.4c-1.9,0-3.6-0.3-5.1-1c-1.5-0.6-2.8-1.5-3.9-2.7c-1.1-1.2-1.9-2.5-2.5-4.1c-0.6-1.6-0.9-3.3-0.9-5.2
		c0-1.8,0.3-3.4,0.8-5.1c0.5-1.6,1.3-3,2.3-4.3c1-1.2,2.2-2.2,3.6-3c1.4-0.7,3-1.1,4.8-1.1c1.6,0,3.1,0.3,4.5,0.8
		c1.4,0.5,2.5,1.4,3.4,2.6h0.1V35.5h7.8V74.7z M184.8,62.1c0-1.9-0.5-3.4-1.6-4.6c-1.1-1.2-2.6-1.8-4.6-1.8c-2,0-3.5,0.6-4.6,1.8
		c-1.1,1.2-1.6,2.7-1.6,4.6c0,1.9,0.5,3.4,1.6,4.6c1.1,1.2,2.6,1.8,4.6,1.8c2,0,3.5-0.6,4.6-1.8C184.2,65.5,184.8,64,184.8,62.1z"/>
	<path class="st2" d="M214.5,37.9h13.7c1.6,0,3.2,0.1,4.8,0.3c1.6,0.2,3,0.7,4.3,1.3c1.3,0.7,2.3,1.6,3.1,2.8
		c0.8,1.2,1.2,2.8,1.2,4.8c0,2.1-0.6,3.8-1.7,5.2c-1.2,1.4-2.7,2.3-4.6,2.9v0.1c1.2,0.2,2.3,0.5,3.3,1c1,0.5,1.8,1.1,2.5,1.9
		c0.7,0.8,1.3,1.7,1.6,2.7c0.4,1,0.6,2.1,0.6,3.3c0,1.9-0.4,3.6-1.2,4.8c-0.8,1.3-1.9,2.3-3.2,3.1c-1.3,0.8-2.8,1.4-4.4,1.7
		c-1.6,0.3-3.3,0.5-4.9,0.5h-15V37.9z M222.6,52.6h5.9c0.6,0,1.2-0.1,1.8-0.2c0.6-0.1,1.1-0.4,1.6-0.7c0.5-0.3,0.9-0.7,1.2-1.2
		c0.3-0.5,0.4-1.1,0.4-1.9c0-0.8-0.2-1.4-0.5-1.9c-0.3-0.5-0.8-0.9-1.3-1.2c-0.5-0.3-1.1-0.5-1.8-0.6c-0.7-0.1-1.3-0.2-1.9-0.2h-5.5
		V52.6z M222.6,67.8h7.3c0.6,0,1.3-0.1,1.9-0.2c0.6-0.1,1.2-0.4,1.7-0.7c0.5-0.3,0.9-0.8,1.3-1.3c0.3-0.6,0.5-1.2,0.5-2
		c0-0.9-0.2-1.6-0.6-2.1c-0.4-0.5-1-0.9-1.6-1.2c-0.7-0.3-1.4-0.5-2.1-0.6c-0.8-0.1-1.5-0.2-2.1-0.2h-6.1V67.8z"/>
	<path class="st2" d="M261.6,78.7c-0.5,1.3-1,2.5-1.5,3.6c-0.5,1-1.1,1.9-1.8,2.6c-0.7,0.7-1.7,1.2-2.8,1.6
		c-1.1,0.4-2.6,0.5-4.5,0.5c-2,0-3.9-0.3-5.8-0.9l1-6.4c1.2,0.5,2.4,0.8,3.6,0.8c0.9,0,1.6-0.1,2.1-0.3c0.6-0.2,1-0.5,1.4-0.8
		s0.7-0.8,0.9-1.3c0.2-0.5,0.5-1.1,0.8-1.8l0.6-1.5l-11-25.4h8.4l6.5,16.6h0.1l5.5-16.6h8L261.6,78.7z"/>
</g>
<rect id="screen" x="-0.2" y="0" class="st2" width="272.8" height="41.2"/>
</svg>
